<svg width="169" height="63" viewBox="0 0 169 63" fill="none" xmlns="http://www.w3.org/2000/svg">
<rect width="169" height="63" rx="31.5" fill="#FFF7E8"/>
<path d="M35.8409 40V26.9091H46.1364V40H44.125V28.7841H37.8523V40H35.8409ZM49.8097 44.9091V26.9091H51.7528V28.9886H51.9915C52.1392 28.7614 52.3438 28.4716 52.6051 28.1193C52.8722 27.7614 53.2528 27.4432 53.7472 27.1648C54.2472 26.8807 54.9233 26.7386 55.7756 26.7386C56.8778 26.7386 57.8494 27.0142 58.6903 27.5653C59.5313 28.1165 60.1875 28.8977 60.6591 29.9091C61.1307 30.9205 61.3665 32.1136 61.3665 33.4886C61.3665 34.875 61.1307 36.0767 60.6591 37.0938C60.1875 38.1051 59.5341 38.8892 58.6989 39.446C57.8636 39.9972 56.9006 40.2727 55.8097 40.2727C54.9688 40.2727 54.2955 40.1335 53.7898 39.8551C53.2841 39.571 52.8949 39.25 52.6222 38.892C52.3494 38.5284 52.1392 38.2273 51.9915 37.9886H51.821V44.9091H49.8097ZM51.7869 33.4545C51.7869 34.4432 51.9318 35.3153 52.2216 36.071C52.5114 36.821 52.9347 37.4091 53.4915 37.8352C54.0483 38.2557 54.7301 38.4659 55.5369 38.4659C56.3778 38.4659 57.0795 38.2443 57.642 37.8011C58.2102 37.3523 58.6364 36.75 58.9205 35.9943C59.2102 35.233 59.3551 34.3864 59.3551 33.4545C59.3551 32.5341 59.2131 31.7045 58.929 30.9659C58.6506 30.2216 58.2273 29.6335 57.6591 29.2017C57.0966 28.7642 56.3892 28.5455 55.5369 28.5455C54.7188 28.5455 54.0313 28.7528 53.4744 29.1676C52.9176 29.5767 52.4972 30.1506 52.2131 30.8892C51.929 31.6222 51.7869 32.4773 51.7869 33.4545ZM69.7528 40.2727C68.571 40.2727 67.5341 39.9915 66.642 39.429C65.7557 38.8665 65.0625 38.0795 64.5625 37.0682C64.0682 36.0568 63.821 34.875 63.821 33.5227C63.821 32.1591 64.0682 30.9687 64.5625 29.9517C65.0625 28.9347 65.7557 28.1449 66.642 27.5824C67.5341 27.0199 68.571 26.7386 69.7528 26.7386C70.9347 26.7386 71.9688 27.0199 72.8551 27.5824C73.7472 28.1449 74.4403 28.9347 74.9347 29.9517C75.4347 30.9687 75.6847 32.1591 75.6847 33.5227C75.6847 34.875 75.4347 36.0568 74.9347 37.0682C74.4403 38.0795 73.7472 38.8665 72.8551 39.429C71.9688 39.9915 70.9347 40.2727 69.7528 40.2727ZM69.7528 38.4659C70.6506 38.4659 71.3892 38.2358 71.9688 37.7756C72.5483 37.3153 72.9773 36.7102 73.2557 35.9602C73.5341 35.2102 73.6733 34.3977 73.6733 33.5227C73.6733 32.6477 73.5341 31.8324 73.2557 31.0767C72.9773 30.321 72.5483 29.7102 71.9688 29.2443C71.3892 28.7784 70.6506 28.5455 69.7528 28.5455C68.8551 28.5455 68.1165 28.7784 67.5369 29.2443C66.9574 29.7102 66.5284 30.321 66.25 31.0767C65.9716 31.8324 65.8324 32.6477 65.8324 33.5227C65.8324 34.3977 65.9716 35.2102 66.25 35.9602C66.5284 36.7102 66.9574 37.3153 67.5369 37.7756C68.1165 38.2358 68.8551 38.4659 69.7528 38.4659ZM78.755 26.9091H80.7663V38.125H85.7095V26.9091H87.7209V38.125H92.6641V26.9091H94.6754V40H78.755V26.9091ZM100.36 37.0341L106.667 26.9091H108.985V40H106.974V29.875L100.701 40H98.3487V26.9091H100.36V37.0341ZM110.888 28.7841V26.9091H121.524V28.7841H117.229V40H115.217V28.7841H110.888ZM126.197 31.6477H129.947C131.481 31.6477 132.654 32.0369 133.467 32.8153C134.279 33.5937 134.685 34.5795 134.685 35.7727C134.685 36.5568 134.504 37.2699 134.14 37.9119C133.776 38.5483 133.242 39.0568 132.538 39.4375C131.833 39.8125 130.969 40 129.947 40H124.458V26.9091H126.469V38.125H129.947C130.742 38.125 131.396 37.9148 131.907 37.4943C132.418 37.0739 132.674 36.5341 132.674 35.875C132.674 35.1818 132.418 34.6165 131.907 34.179C131.396 33.7415 130.742 33.5227 129.947 33.5227H126.197V31.6477Z" fill="black"/>
</svg>
