<svg width="169" height="63" viewBox="0 0 169 63" fill="none" xmlns="http://www.w3.org/2000/svg">
<rect width="169" height="63" rx="31.5" fill="#FFF7E8"/>
<path d="M30.8409 41V27.9091H36.1932C37.6023 27.9091 38.7216 28.2273 39.5511 28.8636C40.3807 29.5 40.7955 30.3409 40.7955 31.3864C40.7955 32.1818 40.5597 32.7983 40.0881 33.2358C39.6165 33.6676 39.0114 33.9602 38.2727 34.1136C38.7557 34.1818 39.2244 34.3523 39.679 34.625C40.1392 34.8977 40.5199 35.2727 40.821 35.75C41.1222 36.2216 41.2727 36.8011 41.2727 37.4886C41.2727 38.1591 41.1023 38.7585 40.7614 39.2869C40.4205 39.8153 39.9318 40.233 39.2955 40.5398C38.6591 40.8466 37.8977 41 37.0114 41H30.8409ZM32.75 39.1591H37.0114C37.7045 39.1591 38.2472 38.9943 38.6392 38.6648C39.0313 38.3352 39.2273 37.8864 39.2273 37.3182C39.2273 36.642 39.0313 36.1108 38.6392 35.7244C38.2472 35.3324 37.7045 35.1364 37.0114 35.1364H32.75V39.1591ZM32.75 33.3977H36.1932C36.733 33.3977 37.196 33.3239 37.5824 33.1761C37.9688 33.0227 38.2642 32.8068 38.4688 32.5284C38.679 32.2443 38.7841 31.9091 38.7841 31.5227C38.7841 30.9716 38.554 30.5398 38.0938 30.2273C37.6335 29.9091 37 29.75 36.1932 29.75H32.75V33.3977ZM46.0561 32.6477H49.8061C51.3402 32.6477 52.5135 33.0369 53.326 33.8153C54.1385 34.5937 54.5447 35.5795 54.5447 36.7727C54.5447 37.5568 54.3629 38.2699 53.9993 38.9119C53.6357 39.5483 53.1016 40.0568 52.397 40.4375C51.6925 40.8125 50.8288 41 49.8061 41H44.3175V27.9091H46.3288V39.125H49.8061C50.6016 39.125 51.255 38.9148 51.7663 38.4943C52.2777 38.0739 52.5334 37.5341 52.5334 36.875C52.5334 36.1818 52.2777 35.6165 51.7663 35.179C51.255 34.7415 50.6016 34.5227 49.8061 34.5227H46.0561V32.6477ZM56.6243 41V27.9091H58.6357V41H56.6243ZM62.3175 45.9091V27.9091H64.2607V29.9886H64.4993C64.647 29.7614 64.8516 29.4716 65.1129 29.1193C65.38 28.7614 65.7607 28.4432 66.255 28.1648C66.755 27.8807 67.4311 27.7386 68.2834 27.7386C69.3857 27.7386 70.3572 28.0142 71.1982 28.5653C72.0391 29.1165 72.6953 29.8977 73.1669 30.9091C73.6385 31.9205 73.8743 33.1136 73.8743 34.4886C73.8743 35.875 73.6385 37.0767 73.1669 38.0938C72.6953 39.1051 72.0419 39.8892 71.2067 40.446C70.3714 40.9972 69.4084 41.2727 68.3175 41.2727C67.4766 41.2727 66.8033 41.1335 66.2976 40.8551C65.7919 40.571 65.4027 40.25 65.13 39.892C64.8572 39.5284 64.647 39.2273 64.4993 38.9886H64.3288V45.9091H62.3175ZM64.2947 34.4545C64.2947 35.4432 64.4396 36.3153 64.7294 37.071C65.0192 37.821 65.4425 38.4091 65.9993 38.8352C66.5561 39.2557 67.2379 39.4659 68.0447 39.4659C68.8857 39.4659 69.5874 39.2443 70.1499 38.8011C70.718 38.3523 71.1442 37.75 71.4283 36.9943C71.718 36.233 71.8629 35.3864 71.8629 34.4545C71.8629 33.5341 71.7209 32.7045 71.4368 31.9659C71.1584 31.2216 70.7351 30.6335 70.1669 30.2017C69.6044 29.7642 68.897 29.5455 68.0447 29.5455C67.2266 29.5455 66.5391 29.7528 65.9822 30.1676C65.4254 30.5767 65.005 31.1506 64.7209 31.8892C64.4368 32.6222 64.2947 33.4773 64.2947 34.4545ZM82.4311 41.2727C81.1697 41.2727 80.0817 40.9943 79.1669 40.4375C78.2578 39.875 77.5561 39.0909 77.0618 38.0852C76.5732 37.0739 76.3288 35.8977 76.3288 34.5568C76.3288 33.2159 76.5732 32.0341 77.0618 31.0114C77.5561 29.983 78.2436 29.1818 79.1243 28.608C80.0107 28.0284 81.0447 27.7386 82.2266 27.7386C82.9084 27.7386 83.5817 27.8523 84.2464 28.0795C84.9112 28.3068 85.5163 28.6761 86.0618 29.1875C86.6072 29.6932 87.0419 30.3636 87.3658 31.1989C87.6896 32.0341 87.8516 33.0625 87.8516 34.2841V35.1364H77.7607V33.3977H85.8061C85.8061 32.6591 85.6584 32 85.3629 31.4205C85.0732 30.8409 84.6584 30.3835 84.1186 30.0483C83.5845 29.7131 82.9538 29.5455 82.2266 29.5455C81.4254 29.5455 80.7322 29.7443 80.147 30.142C79.5675 30.5341 79.1214 31.0455 78.8089 31.6761C78.4964 32.3068 78.3402 32.983 78.3402 33.7045V34.8636C78.3402 35.8523 78.5107 36.6903 78.8516 37.3778C79.1982 38.0597 79.6783 38.5795 80.2919 38.9375C80.9055 39.2898 81.6186 39.4659 82.4311 39.4659C82.9595 39.4659 83.4368 39.392 83.8629 39.2443C84.2947 39.0909 84.6669 38.8636 84.9794 38.5625C85.2919 38.2557 85.5334 37.875 85.7038 37.4205L87.647 37.9659C87.4425 38.625 87.0987 39.2045 86.6158 39.7045C86.1328 40.1989 85.5362 40.5852 84.826 40.8636C84.1158 41.1364 83.3175 41.2727 82.4311 41.2727ZM90.093 37.6591H92.2408C92.2862 38.25 92.5533 38.6989 93.0419 39.0057C93.5362 39.3125 94.1783 39.4659 94.968 39.4659C95.7749 39.4659 96.4652 39.3011 97.0391 38.9716C97.6129 38.6364 97.8999 38.0966 97.8999 37.3523C97.8999 36.9148 97.7919 36.5341 97.576 36.2102C97.3601 35.8807 97.0561 35.625 96.6641 35.4432C96.272 35.2614 95.8089 35.1705 95.2749 35.1705H93.0249V33.3636H95.2749C96.076 33.3636 96.6669 33.1818 97.0476 32.8182C97.4339 32.4545 97.6271 32 97.6271 31.4545C97.6271 30.8693 97.4197 30.4006 97.005 30.0483C96.5902 29.6903 96.0021 29.5114 95.2408 29.5114C94.4737 29.5114 93.8345 29.6847 93.3232 30.0312C92.8118 30.3722 92.5419 30.8125 92.5135 31.3523H90.3999C90.4226 30.6477 90.6385 30.0256 91.0476 29.4858C91.4567 28.9403 92.0135 28.5142 92.718 28.2074C93.4226 27.8949 94.2294 27.7386 95.1385 27.7386C96.0589 27.7386 96.8572 27.9006 97.5334 28.2244C98.2152 28.5426 98.7408 28.9773 99.1101 29.5284C99.4851 30.0739 99.6726 30.6932 99.6726 31.3864C99.6726 32.125 99.4652 32.7216 99.0504 33.1761C98.6357 33.6307 98.1158 33.9545 97.4908 34.1477V34.2841C97.9851 34.3182 98.4141 34.4773 98.7777 34.7614C99.147 35.0398 99.4339 35.4062 99.6385 35.8608C99.843 36.3097 99.9453 36.8068 99.9453 37.3523C99.9453 38.1477 99.7322 38.8409 99.3061 39.4318C98.88 40.017 98.2947 40.4716 97.5504 40.7955C96.8061 41.1136 95.9567 41.2727 95.0021 41.2727C94.076 41.2727 93.2464 41.1222 92.5135 40.821C91.7805 40.5142 91.1982 40.0909 90.7663 39.5511C90.3402 39.0057 90.1158 38.375 90.093 37.6591ZM106.623 41.3068C105.793 41.3068 105.04 41.1506 104.364 40.8381C103.688 40.5199 103.151 40.0625 102.754 39.4659C102.356 38.8636 102.157 38.1364 102.157 37.2841C102.157 36.5341 102.305 35.9261 102.6 35.4602C102.896 34.9886 103.29 34.6193 103.785 34.3523C104.279 34.0852 104.825 33.8864 105.421 33.7557C106.023 33.6193 106.629 33.5114 107.237 33.4318C108.032 33.3295 108.677 33.2528 109.171 33.2017C109.671 33.1449 110.035 33.0511 110.262 32.9205C110.495 32.7898 110.612 32.5625 110.612 32.2386V32.1705C110.612 31.3295 110.381 30.6761 109.921 30.2102C109.467 29.7443 108.776 29.5114 107.85 29.5114C106.89 29.5114 106.137 29.7216 105.592 30.142C105.046 30.5625 104.663 31.0114 104.441 31.4886L102.532 30.8068C102.873 30.0114 103.327 29.392 103.896 28.9489C104.469 28.5 105.094 28.1875 105.771 28.0114C106.452 27.8295 107.123 27.7386 107.782 27.7386C108.202 27.7386 108.685 27.7898 109.231 27.892C109.782 27.9886 110.313 28.1903 110.825 28.4972C111.342 28.804 111.771 29.267 112.112 29.8864C112.452 30.5057 112.623 31.3352 112.623 32.375V41H110.612V39.2273H110.509C110.373 39.5114 110.146 39.8153 109.827 40.1392C109.509 40.4631 109.086 40.7386 108.558 40.9659C108.029 41.1932 107.384 41.3068 106.623 41.3068ZM106.93 39.5C107.725 39.5 108.396 39.3438 108.941 39.0312C109.492 38.7188 109.907 38.3153 110.185 37.821C110.469 37.3267 110.612 36.8068 110.612 36.2614V34.4205C110.526 34.5227 110.339 34.6165 110.049 34.7017C109.765 34.7812 109.435 34.8523 109.06 34.9148C108.691 34.9716 108.33 35.0227 107.978 35.0682C107.631 35.108 107.35 35.142 107.134 35.1705C106.612 35.2386 106.123 35.3494 105.668 35.5028C105.219 35.6506 104.856 35.875 104.577 36.1761C104.305 36.4716 104.168 36.875 104.168 37.3864C104.168 38.0852 104.427 38.6136 104.944 38.9716C105.467 39.3239 106.129 39.5 106.93 39.5ZM114.513 29.7841V27.9091H125.149V29.7841H120.854V41H118.842V29.7841H114.513ZM129.822 32.6477H133.572C135.106 32.6477 136.279 33.0369 137.092 33.8153C137.904 34.5937 138.31 35.5795 138.31 36.7727C138.31 37.5568 138.129 38.2699 137.765 38.9119C137.401 39.5483 136.867 40.0568 136.163 40.4375C135.458 40.8125 134.594 41 133.572 41H128.083V27.9091H130.094V39.125H133.572C134.367 39.125 135.021 38.9148 135.532 38.4943C136.043 38.0739 136.299 37.5341 136.299 36.875C136.299 36.1818 136.043 35.6165 135.532 35.179C135.021 34.7415 134.367 34.5227 133.572 34.5227H129.822V32.6477Z" fill="black"/>
</svg>
