<svg width="52" height="130" viewBox="0 0 52 130" fill="none" xmlns="http://www.w3.org/2000/svg">
<path d="M19.4616 78.0005C18.6948 77.4301 12.9704 71.173 7.65527 62.4555C5.48962 58.9035 5.97089 55.3622 6.25134 53.6919C7.77245 44.6328 25.4501 35.6443 28.4339 31.9361C31.1857 28.5163 32.0992 21.7625 31.9922 16.7126C31.7662 15.7057 31.3294 15.168 28.8779 13.7089C26.4265 12.2498 21.9737 9.8855 16.7541 6.00049" stroke="#4B4A4A" stroke-width="12" stroke-linecap="round"/>
<path d="M38.5599 124C37.6745 123.05 33.977 118.103 32.2028 113.431C30.5736 109.141 39.1598 100.519 44.4355 94.5143C46.6343 92.0119 46.1948 87.7132 45.0722 84.1789C44.3892 82.9454 43.2591 81.1218 42.4409 79.9774C41.6227 78.833 41.1506 78.4229 40.6642 78.0005" stroke="#4B4A4A" stroke-width="12" stroke-linecap="round"/>
</svg>
