<svg width="48" height="73" viewBox="0 0 48 73" fill="none" xmlns="http://www.w3.org/2000/svg">
<path d="M1.52921 56.4556L8.10665 70.8632L41.3551 55.6845L45.8604 36.2173L34.1431 2.72792L3.64131 32.7239L1.52921 56.4556Z" fill="#F3E1A3"/>
<path d="M8.10665 70.8632L1.52921 56.4556L3.64131 32.7239L34.1431 2.72792L45.8604 36.2173L41.3551 55.6845L8.10665 70.8632ZM8.10665 70.8632L11.827 63.3666M31.4527 22.2594L25.293 36.232M11.827 63.3666L9.6566 52.7452M11.827 63.3666L23.9117 55.6123M11.827 63.3666L18.8026 49.3104M18.8026 49.3104L16.4187 36.2655M18.8026 49.3104L33.2103 42.7329M18.8026 49.3104L25.293 36.232M25.293 36.232L35.6691 31.4951" stroke="black" stroke-width="3"/>
</svg>
