<svg width="46" height="71" viewBox="0 0 46 71" fill="none" xmlns="http://www.w3.org/2000/svg">
<path d="M15.6072 62.3928L29.7909 68.4003L43.6544 35.6688L34.0919 18.7508L3.68374 2.43999L1.52652 43.99L15.6072 62.3928Z" fill="#F3E1A3"/>
<path d="M29.7909 68.4003L15.6072 62.3928L1.52652 43.99L3.68374 2.43999L34.0919 18.7508L43.6544 35.6688L29.7909 68.4003ZM29.7909 68.4003L27.5319 60.5807M14.5898 18.2113L19.3554 32.2771M27.5319 60.5807L18.9961 54.3918M27.5319 60.5807L31.1006 47.0798M27.5319 60.5807L23.2963 45.9189M23.2963 45.9189L13.0148 38.1328M23.2963 45.9189L29.3038 31.7353M23.2963 45.9189L19.3554 32.2771M19.3554 32.2771L23.6818 22.0623" stroke="black" stroke-width="3"/>
</svg>
