<svg width="55" height="94" viewBox="0 0 55 94" fill="none" xmlns="http://www.w3.org/2000/svg">
<path d="M4.60659 75.4278L15.9598 91.282L52.5464 65.0824L53.3887 40.495L31.3145 2.79908L1.54914 46.2533L4.60659 75.4278Z" fill="#F3E1A3"/>
<path d="M15.9598 91.282L4.60659 75.4278L1.54914 46.2533L31.3145 2.79908L53.3887 40.495L52.5464 65.0824L15.9598 91.282ZM15.9598 91.282L18.6831 81.3444M32.6805 27.0351L28.5403 45.3743M18.6831 81.3444L13.55 69.0235M18.6831 81.3444L31.4522 69.1182M18.6831 81.3444L23.7893 62.7112M23.7893 62.7112L17.8253 47.5125M23.7893 62.7112L39.6435 51.3581M23.7893 62.7112L28.5403 45.3743M28.5403 45.3743L39.9582 37.198" stroke="black" stroke-width="3"/>
</svg>
