<svg width="87" height="60" viewBox="0 0 87 60" fill="none" xmlns="http://www.w3.org/2000/svg">
<path d="M65.8326 57.763L84.0981 50.935L68.3412 8.78386L44.8234 1.56144L2.67668 13.0463L36.8697 53.1098L65.8326 57.763Z" fill="#F3E1A3"/>
<path d="M84.0981 50.935L65.8326 57.763L36.8697 53.1098L2.67668 13.0463L44.8234 1.56144L68.3412 8.78386L84.0981 50.935ZM84.0981 50.935L75.2139 45.7154M26.4309 18.0452L43.0569 26.8227M75.2139 45.7154L61.9809 47.4594M75.2139 45.7154L66.739 30.2007M75.2139 45.7154L58.556 35.9287M58.556 35.9287L42.3281 37.7246M58.556 35.9287L51.728 17.6631M58.556 35.9287L43.0569 26.8227M43.0569 26.8227L38.1395 13.6683" stroke="black" stroke-width="3"/>
</svg>
