<svg width="44" height="71" viewBox="0 0 44 71" fill="none" xmlns="http://www.w3.org/2000/svg">
<path d="M1.50618 55.3539L8.64876 68.4189L38.7987 51.936L41.7061 33.3768L28.4526 2.7667L1.88087 32.9578L1.50618 55.3539Z" fill="#F3E1A3"/>
<path d="M8.64876 68.4189L1.50618 55.3539L1.88087 32.9578L28.4526 2.7667L41.7061 33.3768L38.7987 51.936L8.64876 68.4189ZM8.64876 68.4189L11.63 61.1375M27.2515 21.2634L22.421 34.7823M11.63 61.1375L8.87616 51.3248M11.63 61.1375L22.4371 53.0486M11.63 61.1375L17.2199 47.485M17.2199 47.485L14.1019 35.4142M17.2199 47.485L30.2849 40.3425M17.2199 47.485L22.421 34.7823M22.421 34.7823L31.8301 29.6384" stroke="black" stroke-width="3"/>
</svg>
