<svg width="50" height="49" viewBox="0 0 50 49" fill="none" xmlns="http://www.w3.org/2000/svg">
<path d="M1.5 33.2848V47.2134H33.8438L44.625 33.2848L47.5 2.21338L11.9219 15.0705L1.5 33.2848Z" fill="#F3E1A3"/>
<path d="M1.5 47.2134V33.2848L11.9219 15.0705L47.5 2.21338L44.625 33.2848L33.8438 47.2134H1.5ZM1.5 47.2134L7.25 42.5747M38.1562 16.8562L28.0625 25.7848M7.25 42.5747L9.40625 33.2848M7.25 42.5747L19.8281 40.7848M7.25 42.5747L18.0312 33.8772M18.0312 33.8772L20.9062 22.5705M18.0312 33.8772H32.0469M18.0312 33.8772L28.0625 25.7848M28.0625 25.7848H38.1562" stroke="black" stroke-width="3"/>
</svg>
