<svg width="827" height="421" viewBox="0 0 827 421" fill="none" xmlns="http://www.w3.org/2000/svg">
<rect width="827" height="421" rx="16" transform="matrix(-1 0 0 1 827 0)" fill="#4A5C79"/>
<rect x="-0.5" y="0.5" width="44" height="43" transform="matrix(-1 0 0 1 511 177)" stroke="#FFF7E8"/>
<rect x="-0.5" y="0.5" width="43" height="44" transform="matrix(-1 0 0 1 510 221)" stroke="#FFF7E8"/>
<rect x="-0.5" y="0.5" width="43" height="43" transform="matrix(-1 0 0 1 511 88)" stroke="#FFF7E8"/>
<rect x="-0.5" y="0.5" width="43" height="43" transform="matrix(-1 0 0 1 466 186)" stroke="#FFF7E8"/>
<rect x="-0.5" y="0.5" width="44" height="44" transform="matrix(-1 0 0 1 422 155)" stroke="#FFF7E8"/>
<rect x="-0.5" y="0.5" width="43" height="43" transform="matrix(-1 0 0 1 377 127)" stroke="#FFF7E8"/>
<rect x="-0.5" y="0.5" width="44" height="44" transform="matrix(-1 0 0 1 422 82)" stroke="#FFF7E8"/>
<rect x="-0.5" y="0.5" width="43" height="44" transform="matrix(-1 0 0 1 466 230)" stroke="#FFF7E8"/>
<rect x="-0.5" y="0.5" width="44" height="44" transform="matrix(-1 0 0 1 422 244)" stroke="#FFF7E8"/>
<rect x="-0.5" y="0.5" width="43" height="43" transform="matrix(-1 0 0 1 377 266)" stroke="#FFF7E8"/>
<rect x="-0.5" y="0.5" width="44" height="44" transform="matrix(-1 0 0 1 333 298)" stroke="#FFF7E8"/>
<rect x="-0.5" y="0.5" width="43" height="44" transform="matrix(-1 0 0 1 466 66)" stroke="#FFF7E8"/>
<rect x="-0.5" y="0.5" width="44" height="44" transform="matrix(-1 0 0 1 511 132)" stroke="#FFF7E8"/>
<rect x="-0.5" y="0.5" width="44" height="43" transform="matrix(-1 0 0 1 511 266)" stroke="#FFF7E8"/>
<rect x="-0.5" y="0.5" width="43" height="44" transform="matrix(-1 0 0 1 510 310)" stroke="#FFF7E8"/>
</svg>
