<svg width="827" height="421" viewBox="0 0 827 421" fill="none" xmlns="http://www.w3.org/2000/svg">
<rect width="827" height="421" rx="16" fill="#A1B594"/>
<rect x="325.5" y="184.5" width="44" height="43" stroke="#FFF7E8"/>
<rect x="317.5" y="228.5" width="43" height="44" stroke="#FFF7E8"/>
<rect x="303.5" y="95.5" width="43" height="43" stroke="#FFF7E8"/>
<rect x="370.5" y="193.5" width="43" height="43" stroke="#FFF7E8"/>
<rect x="414.5" y="162.5" width="44" height="44" stroke="#FFF7E8"/>
<rect x="459.5" y="134.5" width="43" height="43" stroke="#FFF7E8"/>
<rect x="503.5" y="111.5" width="44" height="44" stroke="#FFF7E8"/>
<rect x="370.5" y="237.5" width="43" height="44" stroke="#FFF7E8"/>
<rect x="414.5" y="251.5" width="44" height="44" stroke="#FFF7E8"/>
<rect x="459.5" y="273.5" width="43" height="43" stroke="#FFF7E8"/>
<rect x="503.5" y="305.5" width="44" height="44" stroke="#FFF7E8"/>
<rect x="548.5" y="305.5" width="43" height="44" stroke="#FFF7E8"/>
<rect x="325.5" y="139.5" width="44" height="44" stroke="#FFF7E8"/>
<rect x="325.5" y="273.5" width="44" height="43" stroke="#FFF7E8"/>
<rect x="317.5" y="317.5" width="43" height="44" stroke="#FFF7E8"/>
</svg>
