<svg width="827" height="421" viewBox="0 0 827 421" fill="none" xmlns="http://www.w3.org/2000/svg">
<rect width="827" height="421" rx="16" fill="#F3E1A3"/>
<rect x="315.5" y="177.5" width="44" height="43" stroke="#4B4A4A"/>
<rect x="464.5" y="310.5" width="43" height="44" stroke="#4B4A4A"/>
<rect x="312.5" y="222.5" width="43" height="43" stroke="#4B4A4A"/>
<rect x="360.5" y="186.5" width="43" height="43" stroke="#4B4A4A"/>
<rect x="445.5" y="87.5" width="44" height="44" stroke="#4B4A4A"/>
<rect x="329.5" y="88.5" width="43" height="43" stroke="#4B4A4A"/>
<rect x="391.5" y="87.5" width="44" height="44" stroke="#4B4A4A"/>
<rect x="408.5" y="193.5" width="43" height="44" stroke="#4B4A4A"/>
<rect x="456.5" y="215.5" width="44" height="44" stroke="#4B4A4A"/>
<rect x="464.5" y="266.5" width="43" height="43" stroke="#4B4A4A"/>
<rect x="359.5" y="310.5" width="44" height="44" stroke="#4B4A4A"/>
<rect x="412.5" y="310.5" width="43" height="44" stroke="#4B4A4A"/>
<rect x="315.5" y="132.5" width="44" height="44" stroke="#4B4A4A"/>
<rect x="315.5" y="266.5" width="44" height="43" stroke="#4B4A4A"/>
<rect x="307.5" y="310.5" width="43" height="44" stroke="#4B4A4A"/>
</svg>
