<svg width="262" height="237" viewBox="0 0 262 237" fill="none" xmlns="http://www.w3.org/2000/svg">
<rect width="262" height="237" fill="#4A5C79"/>
<path d="M106.809 32.7675L71 158.584C71 158.584 91.4771 161.133 101.765 160.995C112.053 160.856 127.991 158.584 127.991 158.584C127.991 158.584 133.1 150.4 138.078 147.015C143.056 143.63 152.704 141.712 152.704 141.712L146.148 155.692C146.148 155.692 150.052 157.668 152.704 158.584C155.356 159.501 178.621 161.042 181.452 158.584C184.283 156.127 187 150.871 187 150.871L176.409 96.399C176.409 96.399 171.665 77.8621 165.313 67.4756C158.961 57.089 138.078 39.5163 138.078 39.5163C138.078 39.5163 124.349 25.4178 118.913 26.0187C113.477 26.6195 106.809 32.7675 106.809 32.7675Z" fill="#996562"/>
</svg>
