<svg width="381" height="357" viewBox="0 0 381 357" fill="none" xmlns="http://www.w3.org/2000/svg">
<rect width="381" height="357" fill="#4A5C79"/>
<path d="M152.17 47.2765L100 238.332C100 238.332 129.833 242.202 144.822 241.992C159.811 241.782 183.03 238.332 183.03 238.332C183.03 238.332 190.474 225.903 197.726 220.763C204.978 215.624 219.035 212.711 219.035 212.711L209.483 233.94C209.483 233.94 215.171 236.94 219.035 238.332C222.899 239.723 256.793 242.064 260.917 238.332C265.042 234.6 269 226.619 269 226.619L253.57 143.902C253.57 143.902 246.658 115.754 237.404 99.9814C228.151 84.2093 197.726 57.5247 197.726 57.5247C197.726 57.5247 177.724 36.1159 169.804 37.0284C161.884 37.9408 152.17 47.2765 152.17 47.2765Z" fill="#996562" stroke="black" stroke-width="3" stroke-dasharray="6 6"/>
</svg>
