<svg width="97" height="107" viewBox="0 0 97 107" fill="none" xmlns="http://www.w3.org/2000/svg">
<line x1="20.6041" y1="36.6946" x2="47.6041" y2="1.6946" stroke="white"/>
<line x1="75.6041" y1="37.3054" x2="48.6041" y2="2.3054" stroke="white"/>
<rect y="35" width="97" height="72" fill="#626060"/>
<circle cx="48" cy="3" r="3" fill="#D9D9D9"/>
<rect x="4" y="41" width="90" height="61" fill="#474747"/>
<path d="M14.052 62.7744C13.5567 63.1295 11.8736 64.9057 10.9285 66.417C9.5589 68.6072 9.90479 74.3843 10.3841 77.7052C10.7611 80.3166 12.8216 81.0351 14.1591 81.738C15.5288 82.4578 17.9094 81.5976 19.3273 80.8081C21.1936 79.7689 22.1936 76.3456 22.9537 72.9647C23.6455 69.8871 22.298 67.6185 21.3085 65.8705C19.7598 64.375 18.3799 63.681 16.5633 63.3724C16.0644 63.3437 15.5291 63.3437 14.9776 63.3437" stroke="#F3E1A3" stroke-linecap="round"/>
<path d="M27.5137 73.8633C27.5137 73.8734 27.5137 73.8836 27.5163 75.3544C27.5189 76.8252 27.5242 79.7565 27.6091 82.9801" stroke="#F3E1A3" stroke-linecap="round"/>
<path d="M23.1382 73.4014H33.2314" stroke="#F3E1A3" stroke-linecap="round"/>
<path d="M38.4575 72.7788C38.4575 72.7991 38.4575 72.8194 38.4645 74.4256C38.4715 76.0318 38.4855 79.2233 38.5135 81.0371C38.5416 82.8509 38.5832 83.1903 38.6261 83.54" stroke="#F3E1A3" stroke-linecap="round"/>
<path d="M39.5332 78.7584C39.5619 78.7356 39.5906 78.7129 40.5511 77.8863C41.5115 77.0598 43.4029 75.4301 45.464 73.6768" stroke="#F3E1A3" stroke-linecap="round"/>
<path d="M39.8589 78.1997C39.9002 78.1997 40.8486 78.2189 42.46 78.2861C43.5574 78.4099 44.2669 78.6308 45.1423 79.1496C45.7341 79.5256 46.6252 80.1305 47.9324 80.9764" stroke="#F3E1A3" stroke-linecap="round"/>
<path d="M51.8947 72.6307C51.8723 72.6307 51.8496 76.2281 51.8477 81.5438C51.847 83.4694 52.1524 72.4303 52.7252 71.2339C53.2833 70.0682 56.8872 70.6818 58.7321 71.1299C59.9304 71.421 60.1402 73.1977 60.2093 74.7878C60.2371 75.4281 59.8293 75.9777 59.3164 76.5735C58.4826 77.1991 57.701 77.6195 56.6319 77.7668C55.8336 77.8214 54.516 77.835 53.1585 77.8491" stroke="#F3E1A3" stroke-linecap="round"/>
<path d="M62.729 71.9834C62.729 72.0422 62.729 72.101 62.7423 73.3495C62.7556 74.598 62.7822 77.0345 62.9021 78.7734C63.022 80.5122 63.2343 81.4796 63.4531 82.4763" stroke="#F3E1A3" stroke-linecap="round"/>
<path d="M63.5303 76.7178C63.5667 76.7178 64.2127 76.7146 65.4046 76.8743C66.5514 77.0279 67.1205 77.9494 67.3981 78.4657C68.1853 79.9297 67.3048 82.2422 66.6051 83.0642C66.3835 83.1928 66.1166 83.2313 65.8367 83.2378C65.5567 83.2444 65.272 83.2178 64.7834 82.8331" stroke="#F3E1A3" stroke-linecap="round"/>
<path d="M68.9873 71.8979C68.9873 71.9357 69.0062 73.8428 69.1744 77.2511C69.3238 78.7719 69.6029 79.8687 69.7935 80.6881C69.984 81.5075 70.0774 82.0162 70.2691 82.7694" stroke="#F3E1A3" stroke-linecap="round"/>
<path d="M75.0996 72.6133C75.0996 72.6532 75.1451 73.9612 75.3051 76.6219C75.4197 77.9951 75.602 79.4148 75.7062 80.3098C75.8105 81.2048 75.8311 81.5319 75.8799 81.9029" stroke="#F3E1A3" stroke-linecap="round"/>
<path d="M72.2114 71.4409C72.252 71.4409 73.6049 71.4535 75.765 71.4903C76.5932 71.5144 76.8773 71.5498 77.1682 71.5863C77.459 71.6229 77.748 71.6596 78.0458 71.6975" stroke="#F3E1A3" stroke-linecap="round"/>
<path d="M82.6259 72.2296C82.2082 72.5479 80.9869 73.7364 80.189 75.299C79.5804 76.4908 80.3055 77.9828 80.9844 79.0359C81.3321 79.5754 81.9433 79.9779 82.5354 80.3589C84.0466 81.3312 86.333 80.644 86.8365 80.2646C88.3915 79.0929 88.6735 75.4655 88.4865 73.9475C87.6555 73.0377 86.5391 72.5275 84.296 72.239C83.676 72.1988 83.105 72.1988 82.4361 72.2582" stroke="#F3E1A3" stroke-linecap="round"/>
<path d="M72.0971 50.6514C72.0768 50.6514 71.4968 50.6514 70.5874 50.7803C70.2276 50.8313 70.1549 51.1671 70.2429 51.3167C70.6024 51.4999 71.2068 51.4138 71.8315 51.1965C72.1315 51.0998 72.3971 51.0309 72.0536 50.6917" stroke="#F3E1A3" stroke-linecap="round"/>
<path d="M71.6601 54.5591C71.6209 54.5591 71.2022 54.5591 70.73 54.6361C70.9193 54.867 72.0424 55.0256 73.2042 54.9811C73.5142 54.9367 73.2563 54.8478 72.3058 54.6121" stroke="#F3E1A3" stroke-linecap="round"/>
<path d="M76.2495 47.7188C76.2495 47.7796 76.7288 48.8207 77.6263 50.902C78.3871 53.0763 78.7924 54.6139 78.872 55.7101C78.899 56.4051 78.899 57.3816 78.899 58.3877" stroke="#F3E1A3" stroke-linecap="round"/>
</svg>
