<svg width="341" height="305" viewBox="0 0 341 305" fill="none" xmlns="http://www.w3.org/2000/svg">
<path d="M204.22 246.212L191.72 235.212L237.72 203.712L241.22 212.712L273.72 230.712L246.72 193.712L259.22 182.712L307.72 257.212L294.22 265.712L277.22 238.712L241.22 216.212L237.72 218.712L228.72 224.212L226.72 246.212L231.72 302.212L208.72 298.212L204.22 246.212Z" fill="#141414" stroke="black" stroke-width="3"/>
<path d="M118.72 249.212C94.6626 256.552 40.7197 257.712 40.7197 257.712L183.22 161.712L317.72 48.7124C317.72 48.7124 295.61 107.141 292.72 113.212C289.829 119.284 288.52 122.853 285.22 128.712C281.92 134.572 254.569 163.079 233.72 180.712C212.87 198.346 176.72 221.212 176.72 221.212C176.72 221.212 142.777 241.873 118.72 249.212Z" fill="#D9D9D9" stroke="#5C5B5B" stroke-width="3"/>
<path d="M107.72 145.213C64.1231 184.689 5.45917 251.032 5.21973 255.713C4.9803 260.393 2.59701 263.829 5.21973 267.712C7.84245 271.596 24.7197 263.212 24.7197 263.212C24.7197 263.212 79.2587 232.979 112.72 211.213C146.181 189.446 234.685 119.778 253.72 103.713C272.754 87.6474 286.55 78.5369 301.72 61.7125C316.89 44.8881 340.482 20.6837 335.72 14.7125C330.957 8.74132 326.202 7.30764 319.22 4.2125C312.237 1.11736 262.2 32.5508 227.72 54.2125C193.239 75.8742 151.316 105.736 107.72 145.213Z" fill="#A2A2A2" stroke="#333333" stroke-width="8"/>
<path d="M133.22 266.212L120.72 250.212C120.72 250.212 181.057 221.199 214.72 195.212C248.382 169.226 291.72 118.212 291.72 118.212L301.72 131.712C301.72 131.712 260.45 183.411 227.72 209.712C194.99 236.013 133.22 266.212 133.22 266.212Z" fill="#141414" stroke="black" stroke-width="3"/>
<path d="M122.22 198.212L125.22 91.7124M228.72 247.212L258.22 249.712L254.22 205.712L251.22 202.212L254.22 237.712L228.72 234.212V247.212Z" stroke="black" stroke-width="3"/>
<path d="M193.22 144.212L132.72 86.2124" stroke="black" stroke-width="3"/>
<path d="M229.22 118.212L136.72 80.2124" stroke="black" stroke-width="3"/>
<path d="M132.72 94.2124L139.72 88.2124" stroke="black" stroke-width="3"/>
<path d="M125.72 72.2124L119.22 77.2124L127.22 86.2124L131.72 83.7124V79.7124L125.72 72.2124Z" fill="#1D1C1C" stroke="black" stroke-width="3"/>
</svg>
